<svg xmlns="http://www.w3.org/2000/svg" width="71" height="18" viewBox="0 0 71 18">
  <path fill="#FFFFFF" d="M752.585611,32.0731568 L755.793633,35.3021424 C755.910015,35.4194282 756.182803,35.6944282 755.630699,36.266571 C755.393961,36.5119996 755.178087,36.6372853 754.989322,36.6387138 L754.985915,36.6387138 C754.823406,36.6387138 754.713837,36.5509996 754.628112,36.4648567 L751.412568,33.2282425 L748.202275,36.4794281 C747.942829,36.7408567 747.638959,36.679571 747.247235,36.2858567 C746.84884,35.8827139 746.783695,35.5731424 747.042147,35.311571 L750.252866,32.0606568 L747.108286,28.8953712 L747.085861,28.8732712 C747.009362,28.7985998 746.893831,28.6859426 746.89227,28.5022283 C746.890851,28.3127855 747.016174,28.0896712 747.264976,27.8391712 C747.475031,27.6275712 747.674015,27.5203712 747.85682,27.5203712 L747.856962,27.5203712 C748.062901,27.5205426 748.194469,27.6533426 748.26884,27.7281284 L751.425342,30.905414 L754.653092,27.6561426 C754.693825,27.6152855 754.80751,27.5210426 754.990031,27.5210426 L754.99656,27.5210426 C755.200654,27.5234998 755.415534,27.6426855 755.635382,27.8750569 C755.997585,28.2579283 756.058047,28.5768998 755.814923,28.8230426 L752.585611,32.0731568 Z M740.996254,36.7117138 C738.618943,36.5297138 736.756692,34.4251425 736.756692,31.9203711 L736.756692,24.0003284 C736.756692,23.5415142 737.103283,23.4475999 737.623453,23.4475999 C738.143623,23.4475999 738.490213,23.5415142 738.490213,24.0003284 L738.490213,31.9389997 C738.490213,33.4995711 739.618124,34.839571 741.057852,34.989571 C741.884446,35.0744282 742.678965,34.8139996 743.296924,34.2529996 C743.903529,33.7027139 744.251539,32.9114425 744.251823,32.0819711 C744.251823,31.8445854 744.136292,31.0714854 743.609168,30.3538569 C743.210489,29.8115997 742.455285,29.1656855 741.116184,29.1656855 C741.108946,29.165514 741.099153,29.1656855 741.090779,29.1656855 C740.747169,29.1656855 740.453802,29.1493855 740.397314,28.3300283 C740.359419,27.7786855 740.362541,27.5321426 740.835733,27.4658426 C741.679785,27.3479855 742.540442,27.5140569 743.393294,27.9602141 C744.849628,28.7228283 745.825248,30.1678569 745.939926,31.7316997 C746.039561,33.0899568 745.552886,34.4149996 744.604516,35.3672853 C743.652598,36.3228567 742.338051,36.8122853 740.996254,36.7117138 Z M691.776827,31.462614 C690.073409,31.7087568 688.412343,31.2526283 687.059419,30.204414 L687.059419,34.9214282 L695.000788,34.9214282 C695.276655,34.9214282 695.474533,34.9714282 695.474533,35.791571 C695.474533,36.5918567 695.154185,36.623571 694.942796,36.623571 L686.149126,36.623571 C685.638515,36.623571 685.36835,36.2078567 685.36835,35.7469996 L685.36835,28.0054141 C685.36835,27.5994998 685.623988,27.4619426 686.099784,27.3671284 C686.516313,27.2841569 686.758203,27.3326426 686.940326,27.5358284 L686.959501,27.5655712 C687.797279,28.7810283 689.620173,29.9584283 691.352814,29.7449712 C693.420933,29.4902855 695.086158,27.8296855 695.313912,25.7965998 C695.459233,24.4993284 695.065933,23.2522856 694.207206,22.2851571 C693.35945,21.3302999 692.145843,20.7825857 690.878076,20.7825857 C688.999957,20.7825857 687.358463,21.9977142 686.674933,23.7612713 C686.573752,24.0223713 686.402824,24.2156856 685.662963,23.9449284 C684.983146,23.6961427 684.943727,23.4081999 685.037478,23.1474285 C685.927361,20.6810285 688.274459,19.0237166 690.877806,19.0237166 C692.640991,19.0237166 694.328399,19.7845986 695.507347,21.1114428 C696.701878,22.4554142 697.24443,24.1879999 697.044623,25.9900713 C696.731485,28.8109426 694.562142,31.0613283 691.776827,31.462614 Z M726.111305,20.8978857 C722.275389,20.8978857 719.154512,24.039057 719.154512,27.8999998 C719.154512,31.7610997 722.275389,34.9022853 726.111305,34.9022853 C729.946937,34.9022853 733.067531,31.7610997 733.067531,27.8999998 C733.067531,24.039057 729.946937,20.8978857 726.111305,20.8978857 L726.111305,20.8978857 Z M726.111305,36.8001424 C721.235333,36.8001424 717.268559,32.8075282 717.268559,27.8999998 C717.268559,22.9924713 721.235333,19 726.111305,19 C730.986993,19 734.953484,22.9924713 734.953484,27.8999998 C734.953484,32.8075282 730.986993,36.8001424 726.111305,36.8001424 Z M706.974872,20.8978857 C703.138956,20.8978857 700.01822,24.039057 700.01822,27.8999998 C700.01822,31.7610997 703.138956,34.9022853 706.974872,34.9022853 C710.810646,34.9022853 713.93124,31.7610997 713.93124,27.8999998 C713.93124,24.039057 710.810646,20.8978857 706.974872,20.8978857 L706.974872,20.8978857 Z M706.974872,36.8001424 C702.099042,36.8001424 698.132154,32.8075282 698.132154,27.8999998 C698.132154,22.9924713 702.099042,19 706.974872,19 C711.85056,19 715.817193,22.9924713 715.817193,27.8999998 C715.817193,32.8075282 711.85056,36.8001424 706.974872,36.8001424 L706.974872,36.8001424 Z" transform="matrix(1 0 0 -1 -685 36.8)"/>
</svg>
