<svg xmlns="http://www.w3.org/2000/svg" width="34" height="34" viewBox="0 0 34 34">
  <g fill="none" fill-rule="evenodd">
    <g fill="#FFFFFF" fill-rule="nonzero">
      <path d="M30.9385833,34 C30.11975,34 29.3519167,33.68125 28.7739167,33.10325 L19.1958333,21.726 C17.13175,23.2503333 14.6185833,24.0833333 12.0416667,24.0833333 C5.40175,24.0833333 0,18.6815833 0,12.0416667 C0,5.40175 5.40316667,0 12.0416667,0 C18.6801667,0 24.0833333,5.40175 24.0833333,12.0416667 C24.0833333,14.6171667 23.2503333,17.13175 21.7245833,19.1958333 L33.0593333,28.7314167 C34.2975,29.9681667 34.2975,31.9104167 33.10325,33.10325 C32.52525,33.68125 31.756,34 30.9385833,34 Z M19.2964167,20.0373333 C19.499,20.0373333 19.6973333,20.12375 19.839,20.2895 L29.8165833,32.1455833 C30.3549167,32.6754167 31.4783333,32.7221667 32.1016667,32.10025 C32.742,31.4585 32.742,30.4158333 32.1016667,29.7726667 L20.2880833,19.8375833 C19.9905833,19.5854167 19.9509167,19.1405833 20.20025,18.8416667 C21.78975,16.93625 22.66525,14.5208333 22.66525,12.04025 C22.66525,6.18091667 17.8995833,1.41525 12.04025,1.41525 C6.18091667,1.41525 1.41525,6.18091667 1.41525,12.04025 C1.41525,17.8995833 6.18091667,22.66525 12.04025,22.66525 C14.5208333,22.66525 16.93625,21.78975 18.8416667,20.20025 C18.97625,20.0911667 19.1363333,20.0373333 19.2964167,20.0373333 Z"/>
      <path d="M13,11 L13,7.4955775 C13,6.94573523 12.5561352,6.5 12,6.5 C11.4477153,6.5 11,6.94483697 11,7.4955775 L11,11 L7.4955775,11 C6.94573523,11 6.5,11.4438648 6.5,12 C6.5,12.5522847 6.94483697,13 7.4955775,13 L11,13 L11,16.5044225 C11,17.0542648 11.4438648,17.5 12,17.5 C12.5522847,17.5 13,17.055163 13,16.5044225 L13,13 L16.5044225,13 C17.0542648,13 17.5,12.5561352 17.5,12 C17.5,11.4477153 17.055163,11 16.5044225,11 L13,11 Z"/>
    </g>
  </g>
</svg>
